<?xml version="1.0" encoding="UTF-8"?>
<svg xmlns="http://www.w3.org/2000/svg" width="748" height="740" viewBox="0 0 748 740">
<style>
  text { font-family: 'Helvetica Neue', Arial, sans-serif; }
</style>
<rect x="0" y="0" width="748" height="740" fill="white"/>
<text x="50" y="30" font-size="14" text-anchor="start">Ground Floor Plan - Main House</text>
<line x1="50" y1="40" x2="698" y2="40" stroke="black" stroke-width="1"/>
<g transform="translate(50, 90)">
<rect x="0" y="0" width="120" height="144" fill="none" stroke="#ccc" stroke-width="0.5"/>
<rect x="0" y="0" width="120" height="6" fill="black" stroke="black" stroke-width="3"/>
<rect x="0" y="0" width="6" height="144" fill="black" stroke="black" stroke-width="3"/>
<line x1="60" y1="0" x2="96" y2="0" fill="none" stroke="black" stroke-width="1"/>
<path d="M 60 0 A 36 36 0 0 1 96 36" fill="none" stroke="black" stroke-width="1" stroke-dasharray="4,2"/>
<rect x="120" y="0" width="240" height="264" fill="none" stroke="#ccc" stroke-width="0.5"/>
<rect x="120" y="0" width="240" height="6" fill="black" stroke="black" stroke-width="3"/>
<rect x="354" y="0" width="6" height="264" fill="black" stroke="black" stroke-width="3"/>
<rect x="179" y="-1" width="74" height="4" fill="white" stroke="black" stroke-width="1"/>
<line x1="180" y1="0" x2="252" y2="0" stroke="black" stroke-width="1"/>
<rect x="287" y="-1" width="74" height="4" fill="white" stroke="black" stroke-width="1"/>
<line x1="288" y1="0" x2="360" y2="0" stroke="black" stroke-width="1"/>
<rect x="360" y="0" width="288" height="288" fill="none" stroke="#ccc" stroke-width="0.5"/>
<rect x="360" y="0" width="288" height="6" fill="black" stroke="black" stroke-width="3"/>
<rect x="642" y="0" width="6" height="288" fill="black" stroke="black" stroke-width="3"/>
<rect x="360" y="282" width="288" height="6" fill="black" stroke="black" stroke-width="3"/>
<line x1="360" y1="144" x2="552" y2="144" fill="none" stroke="black" stroke-width="1"/>
<path d="M 360 144 A 192 192 0 0 0 168 336" fill="none" stroke="black" stroke-width="1" stroke-dasharray="4,2"/>
<rect x="0" y="144" width="120" height="120" fill="none" stroke="#ccc" stroke-width="0.5"/>
<rect x="0" y="144" width="6" height="120" fill="black" stroke="black" stroke-width="3"/>
<line x1="0" y1="204" x2="36" y2="204" fill="none" stroke="black" stroke-width="1"/>
<path d="M 0 204 A 36 36 0 0 1 36 240" fill="none" stroke="black" stroke-width="1" stroke-dasharray="4,2"/>
<line x1="120" y1="204" x2="156" y2="204" fill="none" stroke="black" stroke-width="1"/>
<path d="M 120 204 A 36 36 0 0 0 84 240" fill="none" stroke="black" stroke-width="1" stroke-dasharray="4,2"/>
<rect x="0" y="264" width="120" height="120" fill="none" stroke="#ccc" stroke-width="0.5"/>
<rect x="0" y="264" width="6" height="120" fill="black" stroke="black" stroke-width="3"/>
<rect x="0" y="264" width="120" height="6" fill="black" stroke="black" stroke-width="2"/>
<rect x="114" y="264" width="6" height="120" fill="black" stroke="black" stroke-width="2"/>
<rect x="0" y="378" width="120" height="6" fill="black" stroke="black" stroke-width="2"/>
<line x1="120" y1="324" x2="150" y2="324" fill="none" stroke="black" stroke-width="1"/>
<path d="M 120 324 A 30 30 0 0 0 90 354" fill="none" stroke="black" stroke-width="1" stroke-dasharray="4,2"/>
<rect x="120" y="264" width="168" height="168" fill="none" stroke="#ccc" stroke-width="0.5"/>
<rect x="288" y="288" width="168" height="168" fill="none" stroke="#ccc" stroke-width="0.5"/>
<rect x="450" y="288" width="6" height="168" fill="black" stroke="black" stroke-width="3"/>
<line x1="372" y1="480" x2="468" y2="480" stroke="black" stroke-width="2"/>
<line x1="372" y1="478" x2="468" y2="478" stroke="black" stroke-width="1"/>
<rect x="455" y="383" width="62" height="4" fill="white" stroke="black" stroke-width="1"/>
<line x1="456" y1="384" x2="516" y2="384" stroke="black" stroke-width="1"/>
<rect x="0" y="432" width="216" height="168" fill="none" stroke="#ccc" stroke-width="0.5"/>
<rect x="0" y="432" width="6" height="168" fill="black" stroke="black" stroke-width="3"/>
<rect x="0" y="594" width="216" height="6" fill="black" stroke="black" stroke-width="3"/>
<line x1="108" y1="648" x2="204" y2="648" stroke="black" stroke-width="2"/>
<line x1="108" y1="646" x2="204" y2="646" stroke="black" stroke-width="1"/>
<rect x="-1" y="539" width="50" height="4" fill="white" stroke="black" stroke-width="1"/>
<line x1="0" y1="540" x2="48" y2="540" stroke="black" stroke-width="1"/>
<text x="60" y="72" font-size="10" text-anchor="middle">FOYER</text>
<text x="60" y="88" font-size="7" text-anchor="middle">10' × 12'</text>
<text x="240" y="126" font-size="10" text-anchor="middle">LIVING ROOM</text>
<text x="240" y="138" font-size="10" text-anchor="middle">(vaulted)</text>
<text x="240" y="154" font-size="7" text-anchor="middle">20' × 22'</text>
<text x="504" y="138" font-size="10" text-anchor="middle">GARAGE</text>
<text x="504" y="150" font-size="10" text-anchor="middle">24x24</text>
<text x="504" y="166" font-size="7" text-anchor="middle">24' × 24'</text>
<text x="60" y="198" font-size="10" text-anchor="middle">MUD</text>
<text x="60" y="210" font-size="10" text-anchor="middle">ROOM</text>
<text x="60" y="226" font-size="7" text-anchor="middle">10' × 10'</text>
<text x="60" y="324" font-size="10" text-anchor="middle">BATH</text>
<text x="60" y="340" font-size="7" text-anchor="middle">10' × 10'</text>
<text x="204" y="348" font-size="10" text-anchor="middle">DINING</text>
<text x="204" y="364" font-size="7" text-anchor="middle">14' × 14'</text>
<text x="372" y="366" font-size="10" text-anchor="middle">FAMILY</text>
<text x="372" y="378" font-size="10" text-anchor="middle">ROOM</text>
<text x="372" y="394" font-size="7" text-anchor="middle">14' × 14'</text>
<text x="108" y="516" font-size="10" text-anchor="middle">KITCHEN</text>
<text x="108" y="532" font-size="7" text-anchor="middle">18' × 14'</text>
</g>
<text x="618" y="725" font-size="8" text-anchor="start">Scale: 1/4" = 1'-0"</text>
</svg>