<?xml version="1.0" encoding="UTF-8"?>
<svg xmlns="http://www.w3.org/2000/svg" width="436" height="452" viewBox="0 0 436 452">
<style>
  text { font-family: 'Helvetica Neue', Arial, sans-serif; }
</style>
<rect x="0" y="0" width="436" height="452" fill="white"/>
<text x="50" y="30" font-size="14" text-anchor="start">Upper Floor Plan - Main House</text>
<line x1="50" y1="40" x2="386" y2="40" stroke="black" stroke-width="1"/>
<g transform="translate(50, 90)">
<rect x="0" y="0" width="144" height="168" fill="none" stroke="#ccc" stroke-width="0.5"/>
<rect x="0" y="0" width="144" height="6" fill="black" stroke="black" stroke-width="3"/>
<rect x="0" y="0" width="6" height="168" fill="black" stroke="black" stroke-width="3"/>
<line x1="144" y1="84" x2="174" y2="84" fill="none" stroke="black" stroke-width="1"/>
<path d="M 144 84 A 30 30 0 0 0 114 114" fill="none" stroke="black" stroke-width="1" stroke-dasharray="4,2"/>
<rect x="-1" y="83" width="50" height="4" fill="white" stroke="black" stroke-width="1"/>
<line x1="0" y1="84" x2="48" y2="84" stroke="black" stroke-width="1"/>
<rect x="71" y="-1" width="50" height="4" fill="white" stroke="black" stroke-width="1"/>
<line x1="72" y1="0" x2="120" y2="0" stroke="black" stroke-width="1"/>
<rect x="144" y="0" width="144" height="168" fill="none" stroke="#ccc" stroke-width="0.5"/>
<rect x="144" y="0" width="144" height="6" fill="black" stroke="black" stroke-width="3"/>
<rect x="282" y="0" width="6" height="168" fill="black" stroke="black" stroke-width="3"/>
<line x1="144" y1="84" x2="174" y2="84" fill="none" stroke="black" stroke-width="1"/>
<path d="M 144 84 A 30 30 0 0 1 174 114" fill="none" stroke="black" stroke-width="1" stroke-dasharray="4,2"/>
<rect x="287" y="83" width="50" height="4" fill="white" stroke="black" stroke-width="1"/>
<line x1="288" y1="84" x2="336" y2="84" stroke="black" stroke-width="1"/>
<rect x="215" y="-1" width="50" height="4" fill="white" stroke="black" stroke-width="1"/>
<line x1="216" y1="0" x2="264" y2="0" stroke="black" stroke-width="1"/>
<rect x="288" y="0" width="48" height="168" fill="none" stroke="#ccc" stroke-width="0.5"/>
<rect x="330" y="0" width="6" height="168" fill="black" stroke="black" stroke-width="3"/>
<rect x="0" y="168" width="120" height="120" fill="none" stroke="#ccc" stroke-width="0.5"/>
<rect x="0" y="168" width="6" height="120" fill="black" stroke="black" stroke-width="3"/>
<rect x="0" y="282" width="120" height="6" fill="black" stroke="black" stroke-width="3"/>
<rect x="0" y="168" width="120" height="6" fill="black" stroke="black" stroke-width="2"/>
<rect x="114" y="168" width="6" height="120" fill="black" stroke="black" stroke-width="2"/>
<line x1="120" y1="228" x2="150" y2="228" fill="none" stroke="black" stroke-width="1"/>
<path d="M 120 228 A 30 30 0 0 0 90 258" fill="none" stroke="black" stroke-width="1" stroke-dasharray="4,2"/>
<rect x="-1" y="227" width="38" height="4" fill="white" stroke="black" stroke-width="1"/>
<line x1="0" y1="228" x2="36" y2="228" stroke="black" stroke-width="1"/>
<rect x="120" y="168" width="168" height="144" fill="none" stroke="#ccc" stroke-width="0.5"/>
<rect x="282" y="168" width="6" height="144" fill="black" stroke="black" stroke-width="3"/>
<rect x="120" y="306" width="168" height="6" fill="black" stroke="black" stroke-width="3"/>
<rect x="287" y="239" width="62" height="4" fill="white" stroke="black" stroke-width="1"/>
<line x1="288" y1="240" x2="348" y2="240" stroke="black" stroke-width="1"/>
<text x="72" y="84" font-size="10" text-anchor="middle">BEDROOM 1</text>
<text x="72" y="100" font-size="7" text-anchor="middle">12' × 14'</text>
<text x="216" y="84" font-size="10" text-anchor="middle">BEDROOM 2</text>
<text x="216" y="100" font-size="7" text-anchor="middle">12' × 14'</text>
<text x="312" y="84" font-size="10" text-anchor="middle">HALL</text>
<text x="312" y="100" font-size="7" text-anchor="middle">4' × 14'</text>
<text x="60" y="228" font-size="10" text-anchor="middle">BATH</text>
<text x="60" y="244" font-size="7" text-anchor="middle">10' × 10'</text>
<text x="204" y="234" font-size="10" text-anchor="middle">BONUS</text>
<text x="204" y="246" font-size="10" text-anchor="middle">ROOM</text>
<text x="204" y="262" font-size="7" text-anchor="middle">14' × 12'</text>
</g>
<text x="306" y="437" font-size="8" text-anchor="start">Scale: 1/4" = 1'-0"</text>
</svg>