<?xml version="1.0" encoding="UTF-8"?>
<svg xmlns="http://www.w3.org/2000/svg" width="724" height="788" viewBox="0 0 724 788">
<style>
  text { font-family: 'Helvetica Neue', Arial, sans-serif; }
</style>
<rect x="0" y="0" width="724" height="788" fill="white"/>
<text x="50" y="30" font-size="14" text-anchor="start">Roof Plan</text>
<line x1="50" y1="40" x2="674" y2="40" stroke="black" stroke-width="1"/>
<rect x="50" y="90" width="624" height="648" fill="#f0f0f0" stroke="black" stroke-width="2"/>
<line x1="50" y1="414" x2="674" y2="414" stroke="black" stroke-width="2"/>
<line x1="482" y1="210" x2="482" y2="450" stroke="black" stroke-width="2"/>
<line x1="50" y1="90" x2="290" y2="414" stroke="black" stroke-width="1"/>
<line x1="50" y1="738" x2="290" y2="414" stroke="black" stroke-width="1"/>
<line x1="674" y1="90" x2="434" y2="414" stroke="black" stroke-width="1"/>
<line x1="674" y1="738" x2="434" y2="414" stroke="black" stroke-width="1"/>
<line x1="362" y1="270" x2="362" y2="174" stroke="black" stroke-width="1"/>
<text x="386" y="222" font-size="8" text-anchor="start">8:12</text>
<line x1="362" y1="558" x2="362" y2="654" stroke="black" stroke-width="1"/>
<text x="386" y="606" font-size="8" text-anchor="start">8:12</text>
<text x="362" y="394" font-size="10" text-anchor="middle">STANDING SEAM</text>
<text x="362" y="414" font-size="10" text-anchor="middle">METAL ROOF</text>
<text x="362" y="429" font-size="8" text-anchor="middle">(CHARCOAL)</text>
<rect x="530" y="390" width="36" height="48" fill="#999" stroke="black" stroke-width="1"/>
<text x="548" y="414" font-size="6" text-anchor="middle">CH</text>
<line x1="644" y1="150" x2="644" y2="130" stroke="black" stroke-width="2"/>
<text x="644" y="125" font-size="12" text-anchor="middle">N</text>
<text x="594" y="773" font-size="8" text-anchor="start">Scale: 1/4" = 1'-0"</text>
</svg>