<?xml version="1.0" encoding="UTF-8"?>
<svg xmlns="http://www.w3.org/2000/svg" width="700" height="1040" viewBox="0 0 700 1040">
<style>
  text { font-family: 'Helvetica Neue', Arial, sans-serif; }
</style>
<rect x="0" y="0" width="700" height="1040" fill="white"/>
<text x="50" y="30" font-size="14" text-anchor="start">Site Plan</text>
<line x1="50" y1="40" x2="650" y2="40" stroke="black" stroke-width="1"/>
<rect x="50" y="90" width="600" height="900" fill="#f5f5f0" stroke="black" stroke-width="2"/>
<text x="350" y="80" font-size="10" text-anchor="middle">STREET</text>
<rect x="50" y="90" width="120" height="210" fill="#ccc" stroke="black" stroke-width="1"/>
<text x="110" y="195" font-size="8" text-anchor="middle">DRIVEWAY</text>
<rect x="140" y="180" width="228" height="300" fill="#e8e8e8" stroke="black" stroke-width="2"/>
<text x="254" y="320" font-size="10" text-anchor="middle">MAIN HOUSE</text>
<text x="254" y="335" font-size="8" text-anchor="middle">(1.5 story)</text>
<rect x="368" y="180" width="144" height="144" fill="#ddd" stroke="black" stroke-width="1"/>
<text x="440" y="252" font-size="7" text-anchor="middle">GARAGE</text>
<rect x="80" y="480" width="42" height="150" fill="#d4c4a8" stroke="black" stroke-width="1"/>
<text x="101" y="555" font-size="6" text-anchor="middle">COVERED
WALKWAY</text>
<rect x="80" y="660" width="144" height="156" fill="#e8e8e8" stroke="black" stroke-width="2"/>
<text x="152" y="738" font-size="8" text-anchor="middle">MASTER
CASITA</text>
<rect x="50" y="660" width="30" height="156" fill="#90EE90" stroke="green" stroke-width="1"/>
<text x="65" y="738" font-size="6" text-anchor="middle">GARDEN</text>
<text x="344" y="600" font-size="12" text-anchor="middle">BACKYARD</text>
<rect x="170" y="480" width="168" height="90" fill="#ddd" stroke="black" stroke-width="1" stroke-dasharray="2,2"/>
<text x="254" y="528" font-size="8" text-anchor="middle">PATIO</text>
<line x1="620" y1="150" x2="620" y2="130" stroke="black" stroke-width="2"/>
<text x="620" y="125" font-size="12" text-anchor="middle">N</text>
<text x="570" y="1025" font-size="8" text-anchor="start">Scale: 1" = 16'-0"</text>
</svg>